<svg xmlns="http://www.w3.org/2000/svg" width="8.534" height="18.339" viewBox="914.271 4855 8.534 18.339"><path d="M919.9 4860.92h2.905c-.038.386-.072.753-.11 1.123-.063.636-.138 1.268-.189 1.903-.017.177-.063.24-.248.236-.703-.013-1.402-.004-2.105-.004h-.249v9.161h-3.831v-9.153h-1.802v-3.263h1.798c0-.13-.004-.235 0-.336.025-.864-.009-1.73.088-2.581.198-1.668 1.432-2.863 3.099-2.969 1.15-.075 2.311-.012 3.482-.012v3.12h-1.975c-.526.004-.83.252-.855.778-.029.645-.008 1.301-.008 1.996Z" fill="#fff" fill-rule="evenodd" data-name="facebook-icon"/></svg>