<svg xmlns="http://www.w3.org/2000/svg" width="13.354" height="11.714" viewBox="0.025 0 13.354 11.714"><path d="M1.157 6.664 6.37 11.58c.09.09.21.134.33.134.119 0 .238-.045.328-.134l5.214-4.916A3.89 3.89 0 0 0 13.38 3.9c0-1.001-.359-2.002-1.12-2.764C11.57.448 10.703.149 9.807.149c-1.09 0-2.226.464-3.063 1.285-.015 0-.015.015-.03.015s-.015 0-.03-.015C5.923.717 4.937 0 3.936 0a3.949 3.949 0 0 0-2.78 1.136c-1.508 1.509-1.508 4.004 0 5.528Z" fill="#333" fill-rule="evenodd" data-name="Path 79"/></svg>